<?xml version="1.0" standalone="no"?>
<svg xmlns:xlink="http://www.w3.org/1999/xlink" xmlns="http://www.w3.org/2000/svg" class="vtree" width="960" height="800"><style>
.vtree-node text { font: 14px sans-serif; }
.vtree-link { fill: none; stroke: #888; stroke-width: 2px; }
.vtree-table { stroke-width: 2px; stroke: steelblue; }
path.vtree-table { fill: white; }
g.vtree-node rect { fill: white; stroke: black; stroke-width: 1px; }
g.vtree-node rect.number-text { fill: #d8f0ed; }
g.vtree-node rect.string-text { fill: #e7f0db; }
g.vtree-node rect.boolean-text { fill: #e1d8f0; }
g.vtree-node rect.null-text { fill: #888; }
</style><g class="vtree-root" transform="translate(-106.09909854221576,-84.37355419447636)scale(1.0000000000000004)"><g class="vtree-node" transform="translate(480,164)"><g class="vtree-node" transform="translate(-34,0)"><path class="vtree-link" d="M34,12C34,59 177,59 177,106"/><path class="vtree-link" d="M34,12C34,59 -128,59 -128,106"/><g class="vtree-node" transform="translate(-158,74)"><path class="vtree-link" d="M30,32C30,85 104,85 104,138"/><path class="vtree-link" d="M30,32C30,85 -39,85 -39,138"/><g class="vtree-node" transform="translate(-69,94)"><path class="vtree-link" d="M30,44C30,97 30,97 30,150"/><g class="vtree-node" transform="translate(-2,118)"><path class="vtree-link" d="M32,32C32,91 69,91 69,150"/><path class="vtree-link" d="M32,32C32,91 -5,91 -5,150"/><g class="vtree-node" transform="translate(-37,94)"><g transform="translate(0,20)"><g transform="translate(0,0)"><rect class="string-text" x="0" y="0" width="43" height="24"/><text x="4" y="20">value</text></g><g transform="translate(43,0)"><rect class="number-text" x="0" y="0" width="21" height="24"/><text x="4" y="20">-3</text></g><g transform="translate(0,24)"><rect class="string-text" x="0" y="0" width="43" height="24"/><text x="4" y="20">left</text></g><g transform="translate(43,24)"><rect class="null-text" x="0" y="0" width="21" height="24"/><text x="4" y="4"/></g><g transform="translate(0,48)"><rect class="string-text" x="0" y="0" width="43" height="24"/><text x="4" y="20">right</text></g><g transform="translate(43,48)"><rect class="null-text" x="0" y="0" width="21" height="24"/><text x="4" y="4"/></g></g><g><text x="32" y="16" text-anchor="middle">left</text></g></g><g class="vtree-node" transform="translate(37,94)"><g transform="translate(0,20)"><g transform="translate(0,0)"><rect class="string-text" x="0" y="0" width="43" height="24"/><text x="4" y="20">value</text></g><g transform="translate(43,0)"><rect class="number-text" x="0" y="0" width="21" height="24"/><text x="4" y="20">-1</text></g><g transform="translate(0,24)"><rect class="string-text" x="0" y="0" width="43" height="24"/><text x="4" y="20">left</text></g><g transform="translate(43,24)"><rect class="null-text" x="0" y="0" width="21" height="24"/><text x="4" y="4"/></g><g transform="translate(0,48)"><rect class="string-text" x="0" y="0" width="43" height="24"/><text x="4" y="20">right</text></g><g transform="translate(43,48)"><rect class="null-text" x="0" y="0" width="21" height="24"/><text x="4" y="4"/></g></g><g><text x="32" y="16" text-anchor="middle">right</text></g></g><g transform="translate(0,20)"><g transform="translate(0,0)"><rect class="string-text" x="0" y="0" width="43" height="24"/><text x="4" y="20">value</text></g><g transform="translate(43,0)"><rect class="number-text" x="0" y="0" width="21" height="24"/><text x="4" y="20">-2</text></g></g><g><text x="32" y="16" text-anchor="middle">left</text></g></g><g transform="translate(0,20)"><g transform="translate(0,0)"><rect class="string-text" x="0" y="0" width="43" height="24"/><text x="4" y="20">value</text></g><g transform="translate(43,0)"><rect class="number-text" x="0" y="0" width="16" height="24"/><text x="4" y="20">1</text></g><g transform="translate(0,24)"><rect class="string-text" x="0" y="0" width="43" height="24"/><text x="4" y="20">right</text></g><g transform="translate(43,24)"><rect class="null-text" x="0" y="0" width="16" height="24"/><text x="4" y="4"/></g></g><g><text x="30" y="16" text-anchor="middle">left</text></g></g><g class="vtree-node" transform="translate(74,94)"><path class="vtree-link" d="M30,44C30,97 30,97 30,150"/><g class="vtree-node" transform="translate(0,118)"><path class="vtree-link" d="M30,32C30,91 65,91 65,150"/><path class="vtree-link" d="M30,32C30,91 -4,91 -4,150"/><g class="vtree-node" transform="translate(-34,94)"><g transform="translate(0,20)"><g transform="translate(0,0)"><rect class="string-text" x="0" y="0" width="43" height="24"/><text x="4" y="20">value</text></g><g transform="translate(43,0)"><rect class="number-text" x="0" y="0" width="16" height="24"/><text x="4" y="20">7</text></g><g transform="translate(0,24)"><rect class="string-text" x="0" y="0" width="43" height="24"/><text x="4" y="20">left</text></g><g transform="translate(43,24)"><rect class="null-text" x="0" y="0" width="16" height="24"/><text x="4" y="4"/></g><g transform="translate(0,48)"><rect class="string-text" x="0" y="0" width="43" height="24"/><text x="4" y="20">right</text></g><g transform="translate(43,48)"><rect class="null-text" x="0" y="0" width="16" height="24"/><text x="4" y="4"/></g></g><g><text x="30" y="16" text-anchor="middle">left</text></g></g><g class="vtree-node" transform="translate(35,94)"><g transform="translate(0,20)"><g transform="translate(0,0)"><rect class="string-text" x="0" y="0" width="43" height="24"/><text x="4" y="20">value</text></g><g transform="translate(43,0)"><rect class="number-text" x="0" y="0" width="16" height="24"/><text x="4" y="20">9</text></g><g transform="translate(0,24)"><rect class="string-text" x="0" y="0" width="43" height="24"/><text x="4" y="20">left</text></g><g transform="translate(43,24)"><rect class="null-text" x="0" y="0" width="16" height="24"/><text x="4" y="4"/></g><g transform="translate(0,48)"><rect class="string-text" x="0" y="0" width="43" height="24"/><text x="4" y="20">right</text></g><g transform="translate(43,48)"><rect class="null-text" x="0" y="0" width="16" height="24"/><text x="4" y="4"/></g></g><g><text x="30" y="16" text-anchor="middle">right</text></g></g><g transform="translate(0,20)"><g transform="translate(0,0)"><rect class="string-text" x="0" y="0" width="43" height="24"/><text x="4" y="20">value</text></g><g transform="translate(43,0)"><rect class="number-text" x="0" y="0" width="16" height="24"/><text x="4" y="20">8</text></g></g><g><text x="30" y="16" text-anchor="middle">right</text></g></g><g transform="translate(0,20)"><g transform="translate(0,0)"><rect class="string-text" x="0" y="0" width="43" height="24"/><text x="4" y="20">value</text></g><g transform="translate(43,0)"><rect class="number-text" x="0" y="0" width="16" height="24"/><text x="4" y="20">6</text></g><g transform="translate(0,24)"><rect class="string-text" x="0" y="0" width="43" height="24"/><text x="4" y="20">left</text></g><g transform="translate(43,24)"><rect class="null-text" x="0" y="0" width="16" height="24"/><text x="4" y="4"/></g></g><g><text x="30" y="16" text-anchor="middle">right</text></g></g><g transform="translate(0,20)"><g transform="translate(0,0)"><rect class="string-text" x="0" y="0" width="43" height="24"/><text x="4" y="20">value</text></g><g transform="translate(43,0)"><rect class="number-text" x="0" y="0" width="17" height="24"/><text x="4" y="20">4</text></g></g><g><text x="30" y="16" text-anchor="middle">left</text></g></g><g class="vtree-node" transform="translate(143,74)"><path class="vtree-link" d="M34,32C34,85 111,85 111,138"/><path class="vtree-link" d="M34,32C34,85 -51,85 -51,138"/><g class="vtree-node" transform="translate(-85,94)"><path class="vtree-link" d="M34,44C34,97 34,97 34,150"/><g class="vtree-node" transform="translate(0,118)"><path class="vtree-link" d="M34,32C34,91 73,91 73,150"/><path class="vtree-link" d="M34,32C34,91 -4,91 -4,150"/><g class="vtree-node" transform="translate(-38,94)"><g transform="translate(0,20)"><g transform="translate(0,0)"><rect class="string-text" x="0" y="0" width="43" height="24"/><text x="4" y="20">value</text></g><g transform="translate(43,0)"><rect class="number-text" x="0" y="0" width="24" height="24"/><text x="4" y="20">17</text></g><g transform="translate(0,24)"><rect class="string-text" x="0" y="0" width="43" height="24"/><text x="4" y="20">left</text></g><g transform="translate(43,24)"><rect class="null-text" x="0" y="0" width="24" height="24"/><text x="4" y="4"/></g><g transform="translate(0,48)"><rect class="string-text" x="0" y="0" width="43" height="24"/><text x="4" y="20">right</text></g><g transform="translate(43,48)"><rect class="null-text" x="0" y="0" width="24" height="24"/><text x="4" y="4"/></g></g><g><text x="34" y="16" text-anchor="middle">left</text></g></g><g class="vtree-node" transform="translate(39,94)"><g transform="translate(0,20)"><g transform="translate(0,0)"><rect class="string-text" x="0" y="0" width="43" height="24"/><text x="4" y="20">value</text></g><g transform="translate(43,0)"><rect class="number-text" x="0" y="0" width="24" height="24"/><text x="4" y="20">19</text></g><g transform="translate(0,24)"><rect class="string-text" x="0" y="0" width="43" height="24"/><text x="4" y="20">left</text></g><g transform="translate(43,24)"><rect class="null-text" x="0" y="0" width="24" height="24"/><text x="4" y="4"/></g><g transform="translate(0,48)"><rect class="string-text" x="0" y="0" width="43" height="24"/><text x="4" y="20">right</text></g><g transform="translate(43,48)"><rect class="null-text" x="0" y="0" width="24" height="24"/><text x="4" y="4"/></g></g><g><text x="34" y="16" text-anchor="middle">right</text></g></g><g transform="translate(0,20)"><g transform="translate(0,0)"><rect class="string-text" x="0" y="0" width="43" height="24"/><text x="4" y="20">value</text></g><g transform="translate(43,0)"><rect class="number-text" x="0" y="0" width="24" height="24"/><text x="4" y="20">18</text></g></g><g><text x="34" y="16" text-anchor="middle">right</text></g></g><g transform="translate(0,20)"><g transform="translate(0,0)"><rect class="string-text" x="0" y="0" width="43" height="24"/><text x="4" y="20">value</text></g><g transform="translate(43,0)"><rect class="number-text" x="0" y="0" width="24" height="24"/><text x="4" y="20">15</text></g><g transform="translate(0,24)"><rect class="string-text" x="0" y="0" width="43" height="24"/><text x="4" y="20">left</text></g><g transform="translate(43,24)"><rect class="null-text" x="0" y="0" width="24" height="24"/><text x="4" y="4"/></g></g><g><text x="34" y="16" text-anchor="middle">left</text></g></g><g class="vtree-node" transform="translate(73,94)"><path class="vtree-link" d="M38,44C38,97 38,97 38,150"/><g class="vtree-node" transform="translate(0,118)"><path class="vtree-link" d="M38,32C38,91 81,91 81,150"/><path class="vtree-link" d="M38,32C38,91 -4,91 -4,150"/><g class="vtree-node" transform="translate(-42,94)"><g transform="translate(0,20)"><g transform="translate(0,0)"><rect class="string-text" x="0" y="0" width="43" height="24"/><text x="4" y="20">value</text></g><g transform="translate(43,0)"><rect class="number-text" x="0" y="0" width="32" height="24"/><text x="4" y="20">140</text></g><g transform="translate(0,24)"><rect class="string-text" x="0" y="0" width="43" height="24"/><text x="4" y="20">left</text></g><g transform="translate(43,24)"><rect class="null-text" x="0" y="0" width="32" height="24"/><text x="4" y="4"/></g><g transform="translate(0,48)"><rect class="string-text" x="0" y="0" width="43" height="24"/><text x="4" y="20">right</text></g><g transform="translate(43,48)"><rect class="null-text" x="0" y="0" width="32" height="24"/><text x="4" y="4"/></g></g><g><text x="38" y="16" text-anchor="middle">left</text></g></g><g class="vtree-node" transform="translate(43,94)"><g transform="translate(0,20)"><g transform="translate(0,0)"><rect class="string-text" x="0" y="0" width="43" height="24"/><text x="4" y="20">value</text></g><g transform="translate(43,0)"><rect class="number-text" x="0" y="0" width="32" height="24"/><text x="4" y="20">160</text></g><g transform="translate(0,24)"><rect class="string-text" x="0" y="0" width="43" height="24"/><text x="4" y="20">left</text></g><g transform="translate(43,24)"><rect class="null-text" x="0" y="0" width="32" height="24"/><text x="4" y="4"/></g><g transform="translate(0,48)"><rect class="string-text" x="0" y="0" width="43" height="24"/><text x="4" y="20">right</text></g><g transform="translate(43,48)"><rect class="null-text" x="0" y="0" width="32" height="24"/><text x="4" y="4"/></g></g><g><text x="38" y="16" text-anchor="middle">right</text></g></g><g transform="translate(0,20)"><g transform="translate(0,0)"><rect class="string-text" x="0" y="0" width="43" height="24"/><text x="4" y="20">value</text></g><g transform="translate(43,0)"><rect class="number-text" x="0" y="0" width="32" height="24"/><text x="4" y="20">150</text></g></g><g><text x="38" y="16" text-anchor="middle">left</text></g></g><g transform="translate(0,20)"><g transform="translate(0,0)"><rect class="string-text" x="0" y="0" width="43" height="24"/><text x="4" y="20">value</text></g><g transform="translate(43,0)"><rect class="number-text" x="0" y="0" width="32" height="24"/><text x="4" y="20">170</text></g><g transform="translate(0,24)"><rect class="string-text" x="0" y="0" width="43" height="24"/><text x="4" y="20">right</text></g><g transform="translate(43,24)"><rect class="null-text" x="0" y="0" width="32" height="24"/><text x="4" y="4"/></g></g><g><text x="38" y="16" text-anchor="middle">right</text></g></g><g transform="translate(0,20)"><g transform="translate(0,0)"><rect class="string-text" x="0" y="0" width="43" height="24"/><text x="4" y="20">value</text></g><g transform="translate(43,0)"><rect class="number-text" x="0" y="0" width="24" height="24"/><text x="4" y="20">20</text></g></g><g><text x="34" y="16" text-anchor="middle">right</text></g></g><g transform="translate(0,0)"><rect class="string-text" x="0" y="0" width="43" height="24"/><text x="4" y="20">value</text></g><g transform="translate(43,0)"><rect class="number-text" x="0" y="0" width="24" height="24"/><text x="4" y="20">13</text></g></g></g></g></svg>